<svg width="20" height="20" viewBox="0 0 20 20" fill="none" xmlns="http://www.w3.org/2000/svg">
<g clip-path="url(#clip0_11_42)">
<path d="M10 7C8.344 7 7 8.344 7 10C7 11.656 8.344 13 10 13C11.656 13 13 11.656 13 10C13 8.344 11.656 7 10 7ZM10 4C6.685 4 4 6.685 4 10C4 13.315 6.685 16 10 16C13.315 16 16 13.315 16 10C16 6.685 13.315 4 10 4ZM10 14.8C7.348 14.8 5.2 12.652 5.2 10C5.2 7.348 7.348 5.2 10 5.2C12.652 5.2 14.8 7.348 14.8 10C14.8 12.652 12.652 14.8 10 14.8Z" fill="#FF6E6E"/>
</g>
<defs>
<clipPath id="clip0_11_42">
<rect width="20" height="20" fill="white"/>
</clipPath>
</defs>
</svg>
